<svg width="45" height="45" viewBox="0 0 45 45" fill="none" xmlns="http://www.w3.org/2000/svg">
<path d="M35.4105 9C31.968 6.219 27.2183 4.5 22.5 4.5C18.9399 4.5 15.4598 5.55568 12.4997 7.53355C9.53965 9.51141 7.23255 12.3226 5.87017 15.6117C4.50779 18.9008 4.15133 22.52 4.84587 26.0116C5.5404 29.5033 7.25473 32.7106 9.77208 35.2279C12.2894 37.7453 15.4967 39.4596 18.9884 40.1541C22.48 40.8487 26.0992 40.4922 29.3883 39.1298C32.6774 37.7675 35.4886 35.4603 37.4665 32.5003C39.4443 29.5402 40.5 26.0601 40.5 22.5C40.5 21.9033 40.7371 21.331 41.159 20.909C41.581 20.4871 42.1533 20.25 42.75 20.25C43.3467 20.25 43.919 20.4871 44.341 20.909C44.7629 21.331 45 21.9033 45 22.5C45 34.9268 34.9268 45 22.5 45C10.0733 45 0 34.9268 0 22.5C0 10.0733 10.0733 0 22.5 0C28.2353 0 33.9907 2.061 38.25 5.51025V2.25C38.25 1.65326 38.4871 1.08097 38.909 0.65901C39.331 0.237053 39.9033 0 40.5 0C41.0967 0 41.669 0.237053 42.091 0.65901C42.5129 1.08097 42.75 1.65326 42.75 2.25V11.25C42.75 11.8467 42.5129 12.419 42.091 12.841C41.669 13.2629 41.0967 13.5 40.5 13.5H31.5C30.9033 13.5 30.331 13.2629 29.909 12.841C29.4871 12.419 29.25 11.8467 29.25 11.25C29.25 10.6533 29.4871 10.081 29.909 9.65901C30.331 9.23705 30.9033 9 31.5 9H35.4105Z" fill="white"/>
</svg>
