<svg width="19" height="14" viewBox="0 0 19 14" fill="none" xmlns="http://www.w3.org/2000/svg">
<path d="M0.71814 2.41941V1.99293C0.71814 1.7173 0.833107 1.45296 1.03775 1.25806C1.24239 1.06317 1.51995 0.953674 1.80936 0.953674L17.0864 0.953674C17.3758 0.953674 17.6533 1.06317 17.858 1.25806C18.0626 1.45296 18.1776 1.7173 18.1776 1.99293V2.41941L9.44787 7.61568L0.71814 2.41941ZM9.73704 8.66922C9.6503 8.72078 9.55011 8.74811 9.44787 8.74811C9.34562 8.74811 9.24543 8.72078 9.1587 8.66922L0.71814 3.64495V12.3855C0.71814 12.6611 0.833107 12.9254 1.03775 13.1203C1.24239 13.3152 1.51995 13.4247 1.80936 13.4247H17.0864C17.3758 13.4247 17.6533 13.3152 17.858 13.1203C18.0626 12.9254 18.1776 12.6611 18.1776 12.3855V3.64495L9.73704 8.66922Z" fill="#DCDFE5"/>
</svg>
