<svg width="346" height="346" viewBox="0 0 346 346" fill="none" xmlns="http://www.w3.org/2000/svg">
<g clip-path="url(#clip0_7_113)" filter="url(#filter0_d_7_113)">
<path d="M102.257 8C127.302 8 147.603 28.2621 147.603 53.253C147.603 78.2439 127.302 98.506 102.257 98.506C77.2126 98.506 56.9119 78.2442 56.9119 53.253C56.9119 28.2618 77.2126 8 102.257 8Z" fill="#EFC75E"/>
<path d="M102.257 16.485C81.9084 16.485 65.4142 32.9459 65.4142 53.253C65.4142 73.5602 81.9087 90.0211 102.257 90.0211C122.606 90.0211 139.1 73.5602 139.1 53.253C139.1 32.9459 122.606 16.485 102.257 16.485ZM102.257 84.3645C85.0401 84.3645 71.0823 70.4352 71.0823 53.253C71.0823 36.0709 85.0404 22.1415 102.257 22.1415C119.474 22.1415 133.432 36.0709 133.432 53.253C133.432 70.4352 119.477 84.3645 102.257 84.3645ZM106.027 50.8915C104.332 50.1814 98.1027 49.2002 98.1027 46.4822C98.1027 44.4771 100.432 43.897 101.83 43.897C103.102 43.897 104.627 44.2987 105.432 45.099C105.942 45.5882 106.152 45.9446 106.319 46.4369C106.532 47.0167 106.659 47.639 107.464 47.639H111.616C112.591 47.639 112.846 47.4609 112.846 46.3917C112.846 41.8041 109.244 39.2191 105.134 38.3282V34.7643C105.134 33.964 104.879 33.4717 103.904 33.4717H100.597C99.6223 33.4717 99.3671 33.9609 99.3671 34.7643V38.1924C94.9601 39.038 91.2758 41.8013 91.2758 46.7906C91.2758 52.4471 95.2181 54.2289 99.4946 55.6518C103.097 56.8567 106.869 56.8992 106.869 59.3938C106.869 61.8885 105.007 62.4229 102.717 62.4229C101.147 62.4229 99.4125 62.0184 98.5624 60.9523C98.0125 60.2847 97.7999 59.7049 97.7604 59.1252C97.6753 58.0109 97.2106 57.8778 96.233 57.8778H92.1234C91.1486 57.8778 90.8934 58.104 90.8934 59.1252C90.8934 64.202 94.9632 67.2792 99.3675 68.2579V71.734C99.3675 72.5343 99.6226 73.0266 100.597 73.0266H103.905C104.88 73.0266 105.135 72.5346 105.135 71.734V68.3512C110.134 67.5903 113.566 64.564 113.566 59.2185C113.571 53.1628 109.079 51.8701 106.027 50.8915Z" fill="#CC9933"/>
<path d="M334 149.813C334 127.14 320.776 106.66 300.522 97.0837C299.101 47.716 258.418 8 208.615 8C173.382 8 141.819 27.7371 126.338 58.8609C123.136 58.3186 119.91 58.0517 116.667 58.0517C93.9302 58.0517 73.4006 71.257 63.8212 91.4779C32.801 92.8877 8 118.514 8 149.813C8 182.013 34.2555 208.207 66.5128 208.207H275.487C307.744 208.207 334 182.013 334 149.813Z" fill="url(#paint0_linear_7_113)"/>
<path fill-rule="evenodd" clip-rule="evenodd" d="M74.2964 234.275C70.4584 234.275 67.4866 235.72 65.3812 238.609C63.2758 241.476 62.2231 245.481 62.2231 250.625C62.2231 261.327 66.2475 266.679 74.2964 266.679C77.6738 266.679 81.764 265.836 86.567 264.151V272.687C82.6193 274.328 78.2111 275.149 73.3423 275.149C66.3462 275.149 60.9949 273.037 57.2885 268.813C53.5821 264.567 51.7289 258.482 51.7289 250.559C51.7289 245.569 52.6391 241.202 54.4594 237.46C56.2797 233.695 58.8895 230.817 62.2889 228.826C65.7102 226.812 69.7127 225.805 74.2964 225.805C78.9678 225.805 83.6611 226.932 88.3763 229.187L85.0866 237.46C83.2882 236.606 81.4789 235.862 79.6586 235.227C77.8383 234.593 76.0509 234.275 74.2964 234.275ZM99.8751 274.492V226.495H110.073V266.088H129.581V274.492H99.8751ZM183.32 250.428C183.32 258.373 181.346 264.479 177.399 268.747C173.451 273.015 167.793 275.149 160.424 275.149C153.055 275.149 147.396 273.015 143.449 268.747C139.501 264.479 137.527 258.351 137.527 250.362C137.527 242.373 139.501 236.278 143.449 232.076C147.418 227.852 153.098 225.739 160.489 225.739C167.88 225.739 173.528 227.862 177.431 232.109C181.357 236.355 183.32 242.461 183.32 250.428ZM148.219 250.428C148.219 255.79 149.239 259.828 151.278 262.542C153.318 265.256 156.366 266.613 160.424 266.613C168.56 266.613 172.628 261.218 172.628 250.428C172.628 239.616 168.582 234.21 160.489 234.21C156.432 234.21 153.373 235.578 151.311 238.313C149.25 241.027 148.219 245.065 148.219 250.428ZM235.513 226.495V257.552C235.513 261.098 234.712 264.205 233.111 266.876C231.532 269.546 229.24 271.592 226.236 273.015C223.231 274.437 219.678 275.149 215.577 275.149C209.392 275.149 204.589 273.573 201.168 270.421C197.747 267.248 196.036 262.914 196.036 257.421V226.495H206.201V255.878C206.201 259.576 206.947 262.29 208.438 264.019C209.93 265.748 212.397 266.613 215.84 266.613C219.174 266.613 221.586 265.748 223.077 264.019C224.591 262.268 225.347 259.533 225.347 255.812V226.495H235.513ZM290.271 250.034C290.271 257.935 288.012 263.987 283.494 268.189C278.998 272.391 272.496 274.492 263.986 274.492H250.367V226.495H265.467C273.318 226.495 279.415 228.563 283.757 232.699C288.1 236.836 290.271 242.614 290.271 250.034ZM279.678 250.296C279.678 239.988 275.117 234.833 265.993 234.833H260.565V266.088H264.94C274.766 266.088 279.678 260.824 279.678 250.296Z" fill="url(#paint1_linear_7_113)"/>
<path fill-rule="evenodd" clip-rule="evenodd" d="M54.9147 323.491V289.468H65.6534C67.53 289.468 69.2677 289.641 70.8663 289.988C72.4997 290.335 73.9072 290.925 75.0889 291.757C76.2705 292.589 77.1914 293.682 77.8517 295.034C78.512 296.352 78.8422 298 78.8422 299.977C78.8422 301.849 78.512 303.48 77.8517 304.867C77.1914 306.254 76.2705 307.416 75.0889 308.352C73.942 309.254 72.5692 309.93 70.9706 310.381C69.4067 310.798 67.7038 311.006 65.8619 311.006H60.9617V323.491H54.9147ZM60.9617 306.167H65.3927C70.3972 306.167 72.8994 304.104 72.8994 299.977C72.8994 297.826 72.2391 296.352 70.9185 295.555C69.6326 294.722 67.7212 294.306 65.1842 294.306H60.9617V306.167ZM91.3363 324.116C89.0773 324.116 87.2528 323.439 85.8627 322.087C84.4726 320.699 83.7775 318.879 83.7775 316.624C83.7775 315.272 84.0555 314.075 84.6116 313.035C85.2024 311.959 86.1059 311.04 87.3223 310.277C88.5734 309.514 90.1373 308.873 92.014 308.352C93.9254 307.832 96.2017 307.433 98.843 307.156C98.8082 306.497 98.7039 305.873 98.5302 305.283C98.3912 304.659 98.1305 304.121 97.7482 303.67C97.4007 303.185 96.9315 302.821 96.3407 302.578C95.7499 302.3 95.0202 302.162 94.1513 302.162C92.9002 302.162 91.6664 302.404 90.4501 302.89C89.2685 303.376 88.1043 303.965 86.9574 304.659L84.7679 300.653C86.1928 299.751 87.7915 298.971 89.5639 298.312C91.3363 297.653 93.2477 297.323 95.2982 297.323C98.4955 297.323 100.876 298.277 102.44 300.185C104.039 302.058 104.838 304.78 104.838 308.352V323.491H99.8856L99.4685 320.682H99.26C98.1131 321.653 96.8794 322.468 95.5588 323.127C94.2729 323.786 92.8654 324.116 91.3363 324.116ZM93.2651 319.433C94.3077 319.433 95.246 319.191 96.0801 318.705C96.9489 318.22 97.8699 317.526 98.843 316.624V310.902C97.1053 311.11 95.6457 311.387 94.4641 311.734C93.2825 312.081 92.3267 312.48 91.5969 312.93C90.8671 313.347 90.3458 313.832 90.0331 314.387C89.7203 314.942 89.5639 315.532 89.5639 316.156C89.5639 317.3 89.9114 318.133 90.6065 318.653C91.3016 319.173 92.1878 319.433 93.2651 319.433ZM116.133 334C115.438 334 114.83 333.948 114.308 333.844C113.787 333.775 113.283 333.653 112.797 333.48L113.891 328.798C114.135 328.867 114.413 328.936 114.726 329.006C115.073 329.11 115.403 329.162 115.716 329.162C117.071 329.162 118.149 328.746 118.948 327.913C119.782 327.116 120.408 326.075 120.825 324.792L121.294 323.179L111.233 297.948H117.332L121.763 310.485C122.145 311.595 122.51 312.774 122.858 314.023C123.24 315.237 123.622 316.451 124.005 317.665H124.213C124.526 316.485 124.839 315.289 125.151 314.075C125.499 312.826 125.829 311.63 126.142 310.485L130 297.948H135.786L126.507 324.636C125.986 326.092 125.412 327.393 124.787 328.538C124.161 329.682 123.431 330.653 122.597 331.451C121.798 332.283 120.859 332.908 119.782 333.324C118.74 333.775 117.523 334 116.133 334ZM142.598 323.491V297.948H147.55L147.967 301.433H148.176C149.253 300.289 150.417 299.318 151.669 298.52C152.954 297.722 154.397 297.323 155.995 297.323C157.872 297.323 159.366 297.722 160.478 298.52C161.625 299.318 162.494 300.445 163.085 301.901C164.301 300.584 165.57 299.491 166.89 298.624C168.211 297.757 169.688 297.323 171.321 297.323C174.032 297.323 176.03 298.208 177.316 299.977C178.602 301.711 179.245 304.208 179.245 307.468V323.491H173.198V308.248C173.198 306.133 172.868 304.641 172.208 303.774C171.582 302.907 170.609 302.474 169.288 302.474C167.69 302.474 165.9 303.532 163.919 305.647V323.491H157.924V308.248C157.924 306.133 157.594 304.641 156.934 303.774C156.308 302.907 155.318 302.474 153.962 302.474C152.364 302.474 150.574 303.532 148.593 305.647V323.491H142.598ZM199.871 324.116C198.099 324.116 196.448 323.821 194.919 323.231C193.39 322.607 192.052 321.722 190.905 320.578C189.758 319.433 188.855 318.046 188.194 316.416C187.569 314.751 187.256 312.861 187.256 310.745C187.256 308.665 187.586 306.792 188.247 305.127C188.907 303.462 189.776 302.058 190.853 300.913C191.965 299.769 193.234 298.884 194.658 298.26C196.083 297.636 197.543 297.323 199.037 297.323C200.775 297.323 202.304 297.618 203.625 298.208C204.945 298.797 206.04 299.63 206.909 300.705C207.813 301.78 208.49 303.063 208.942 304.555C209.394 306.046 209.62 307.676 209.62 309.445C209.62 310.034 209.585 310.589 209.515 311.11C209.481 311.63 209.429 312.046 209.359 312.358H193.095C193.373 314.647 194.172 316.416 195.493 317.665C196.848 318.878 198.568 319.485 200.653 319.485C201.765 319.485 202.791 319.329 203.729 319.017C204.702 318.67 205.658 318.202 206.596 317.613L208.629 321.358C207.413 322.156 206.057 322.815 204.563 323.335C203.069 323.855 201.505 324.116 199.871 324.116ZM193.042 308.3H204.407C204.407 306.323 203.972 304.78 203.103 303.67C202.269 302.526 200.966 301.954 199.194 301.954C197.665 301.954 196.327 302.491 195.18 303.566C194.033 304.641 193.321 306.219 193.042 308.3ZM217.735 323.491V297.948H222.687L223.104 301.381H223.313C224.46 300.271 225.693 299.318 227.014 298.52C228.369 297.722 229.933 297.323 231.706 297.323C234.451 297.323 236.449 298.208 237.701 299.977C238.952 301.711 239.577 304.208 239.577 307.468V323.491H233.582V308.248C233.582 306.133 233.27 304.641 232.644 303.774C232.018 302.907 230.993 302.474 229.568 302.474C228.456 302.474 227.466 302.751 226.597 303.306C225.763 303.826 224.807 304.607 223.73 305.647V323.491H217.735ZM258.327 324.116C256.832 324.116 255.564 323.89 254.521 323.439C253.514 322.988 252.679 322.364 252.019 321.566C251.394 320.734 250.924 319.763 250.612 318.653C250.334 317.509 250.195 316.243 250.195 314.855V302.682H246.546V298.208L250.507 297.948L251.237 290.977H256.242V297.948H262.758V302.682H256.242V314.855C256.242 317.838 257.441 319.329 259.839 319.329C260.29 319.329 260.742 319.277 261.194 319.173C261.681 319.069 262.115 318.931 262.497 318.757L263.54 323.179C262.845 323.422 262.045 323.63 261.142 323.803C260.273 324.011 259.335 324.116 258.327 324.116ZM277.129 324.116C275.356 324.116 273.601 323.786 271.864 323.127C270.161 322.433 268.684 321.584 267.432 320.578L270.248 316.728C271.394 317.63 272.524 318.341 273.636 318.861C274.783 319.347 276.017 319.589 277.337 319.589C278.727 319.589 279.752 319.312 280.413 318.757C281.073 318.168 281.403 317.422 281.403 316.52C281.403 316 281.247 315.549 280.934 315.168C280.621 314.751 280.204 314.387 279.683 314.075C279.162 313.763 278.571 313.485 277.911 313.243C277.25 312.965 276.59 312.688 275.93 312.41C275.096 312.098 274.244 311.734 273.375 311.318C272.506 310.902 271.725 310.399 271.029 309.809C270.369 309.219 269.813 308.543 269.361 307.78C268.944 306.982 268.736 306.046 268.736 304.971C268.736 302.717 269.57 300.878 271.238 299.456C272.906 298.034 275.182 297.323 278.067 297.323C279.839 297.323 281.438 297.636 282.863 298.26C284.288 298.884 285.521 299.595 286.564 300.393L283.801 304.034C282.898 303.375 281.977 302.855 281.038 302.474C280.135 302.058 279.179 301.849 278.171 301.849C276.885 301.849 275.93 302.127 275.304 302.682C274.713 303.202 274.418 303.861 274.418 304.659C274.418 305.179 274.557 305.63 274.835 306.011C275.148 306.358 275.547 306.67 276.034 306.948C276.52 307.225 277.076 307.485 277.702 307.728C278.362 307.971 279.04 308.214 279.735 308.456C280.604 308.769 281.473 309.133 282.342 309.549C283.21 309.93 283.992 310.416 284.687 311.006C285.417 311.595 285.991 312.324 286.408 313.191C286.859 314.023 287.085 315.029 287.085 316.208C287.085 317.318 286.859 318.358 286.408 319.329C285.991 320.266 285.365 321.098 284.531 321.827C283.697 322.52 282.654 323.075 281.403 323.491C280.152 323.907 278.727 324.116 277.129 324.116Z" fill="url(#paint2_linear_7_113)"/>
</g>
<defs>
<filter id="filter0_d_7_113" x="0" y="0" width="346" height="346" filterUnits="userSpaceOnUse" color-interpolation-filters="sRGB">
<feFlood flood-opacity="0" result="BackgroundImageFix"/>
<feColorMatrix in="SourceAlpha" type="matrix" values="0 0 0 0 0 0 0 0 0 0 0 0 0 0 0 0 0 0 127 0" result="hardAlpha"/>
<feOffset dx="2" dy="2"/>
<feGaussianBlur stdDeviation="5"/>
<feComposite in2="hardAlpha" operator="out"/>
<feColorMatrix type="matrix" values="0 0 0 0 0 0 0 0 0 0 0 0 0 0 0 0 0 0 0.25 0"/>
<feBlend mode="normal" in2="BackgroundImageFix" result="effect1_dropShadow_7_113"/>
<feBlend mode="normal" in="SourceGraphic" in2="effect1_dropShadow_7_113" result="shape"/>
</filter>
<linearGradient id="paint0_linear_7_113" x1="82.2429" y1="166.225" x2="257.928" y2="166.225" gradientUnits="userSpaceOnUse">
<stop stop-color="white"/>
<stop offset="1" stop-color="#B3B3B3"/>
</linearGradient>
<linearGradient id="paint1_linear_7_113" x1="82.2428" y1="166.225" x2="257.928" y2="166.225" gradientUnits="userSpaceOnUse">
<stop stop-color="white"/>
<stop offset="1" stop-color="#B3B3B3"/>
</linearGradient>
<linearGradient id="paint2_linear_7_113" x1="82.2429" y1="166.225" x2="257.928" y2="166.225" gradientUnits="userSpaceOnUse">
<stop stop-color="white"/>
<stop offset="1" stop-color="#B3B3B3"/>
</linearGradient>
<clipPath id="clip0_7_113">
<rect width="326" height="326" fill="white" transform="translate(8 8)"/>
</clipPath>
</defs>
</svg>
