<svg width="16" height="16" viewBox="0 0 16 16" fill="none" xmlns="http://www.w3.org/2000/svg">
<path d="M14 1.66666H1.99996C1.26663 1.66666 0.666626 2.26666 0.666626 2.99999V8.33332H1.99996V2.99999H14V13.6667C14.7333 13.6667 15.3333 13.0667 15.3333 12.3333V2.99999C15.3333 2.26666 14.7333 1.66666 14 1.66666Z" fill="#DCDFE5"/>
<path d="M8.66663 6.33332C8.66663 4.85999 7.47329 3.66666 5.99996 3.66666C4.52663 3.66666 3.33329 4.85999 3.33329 6.33332C3.33329 7.80666 4.52663 8.99999 5.99996 8.99999C7.47329 8.99999 8.66663 7.80666 8.66663 6.33332ZM4.66663 6.33332C4.66663 5.59999 5.26663 4.99999 5.99996 4.99999C6.73329 4.99999 7.33329 5.59999 7.33329 6.33332C7.33329 7.06666 6.73329 7.66666 5.99996 7.66666C5.26663 7.66666 4.66663 7.06666 4.66663 6.33332Z" fill="#DCDFE5"/>
<path d="M10.26 10.7067C9.13996 10.1333 7.68663 9.66666 5.99996 9.66666C4.31329 9.66666 2.85996 10.1333 1.73996 10.7067C1.07329 11.0467 0.666626 11.7333 0.666626 12.48V14.3333H11.3333V12.48C11.3333 11.7333 10.9266 11.0467 10.26 10.7067ZM9.99996 13H1.99996C1.99996 12.52 1.93329 12.1067 2.34663 11.8933C3.13996 11.4867 4.41996 11 5.99996 11C7.57996 11 8.85996 11.4867 9.65329 11.8933C10.0733 12.1067 9.99996 12.5267 9.99996 13Z" fill="#DCDFE5"/>
</svg>
