<svg width="49" height="49" viewBox="0 0 49 49" fill="none" xmlns="http://www.w3.org/2000/svg">
<path d="M10.1245 14.6243L3.632 21.1168C1.62613 23.1227 1.62613 26.3748 3.632 28.3807L10.1245 34.8732M10.1245 14.6243L21.1168 3.63196C23.1227 1.62608 26.3749 1.62608 28.3807 3.63196L39.373 14.6243M10.1245 14.6243L15.2668 14.6243C15.5778 14.6243 15.8783 14.7372 16.1123 14.942L23.9032 21.759C24.3873 22.1826 25.1102 22.1826 25.5944 21.759L33.3852 14.942C33.6193 14.7372 33.9198 14.6243 34.2308 14.6243L39.373 14.6243M39.373 14.6243L45.8656 21.1168C47.8714 23.1227 47.8714 26.3748 45.8656 28.3807L39.373 34.8732M10.1245 34.8732L21.1168 45.8655C23.1227 47.8714 26.3749 47.8714 28.3807 45.8655L39.373 34.8732M10.1245 34.8732L15.381 34.8732C15.6216 34.8732 15.8574 34.8056 16.0615 34.678L24.0682 29.6739C24.4846 29.4136 25.013 29.4136 25.4293 29.6739L33.436 34.678C33.6401 34.8056 33.8759 34.8732 34.1166 34.8732L39.373 34.8732" stroke="white" stroke-width="2.56818"/>
</svg>
