<svg width="25" height="14" viewBox="0 0 25 14" fill="none" xmlns="http://www.w3.org/2000/svg">
<g clip-path="url(#clip0_7_19)">
<path d="M12.6945 0.0361656C10.1048 0.224738 7.52607 1.26707 4.93999 3.17559C3.65528 4.1226 2.32058 5.35143 1.31725 6.5098L0.978485 6.90146L1.1636 7.12526C1.42277 7.43816 2.24283 8.30435 2.71673 8.77061C5.39353 11.3961 8.20545 13.0249 10.9452 13.5347C11.7282 13.6797 12.167 13.7212 12.9907 13.7212C13.6997 13.7232 13.9478 13.7067 14.555 13.6196C16.4172 13.3523 18.2295 12.6208 20.0344 11.4065C21.6561 10.3165 23.3055 8.73952 24.5309 7.10661L24.6753 6.91389L24.6401 6.8683C24.6198 6.84343 24.5013 6.68802 24.3736 6.52224C22.3169 3.83041 19.9808 1.88252 17.6279 0.889923C16.5616 0.442322 15.5713 0.185366 14.4346 0.0651767C14.0737 0.0278766 13.0518 0.0112988 12.6945 0.0361656ZM13.4739 1.23806C14.5142 1.3541 15.5028 1.80792 16.3136 2.53734C16.88 3.04711 17.3521 3.70608 17.6723 4.4355C17.8408 4.81679 17.926 5.06546 18.0185 5.44261C18.2703 6.47043 18.2462 7.58322 17.95 8.59447C17.8001 9.10423 17.6187 9.52282 17.3502 9.9725C17.1485 10.3103 16.993 10.5196 16.7042 10.8428C16.2747 11.3236 15.8712 11.6448 15.3139 11.9515C14.7956 12.2374 14.2958 12.4115 13.6942 12.513C13.3313 12.5752 12.6205 12.5814 12.2595 12.5234C11.0007 12.3286 9.95296 11.7401 9.10327 10.7579C8.32208 9.85231 7.86114 8.76232 7.7223 7.49619C7.68528 7.1522 7.69453 6.42484 7.74266 6.08707C8.037 3.95475 9.36984 2.21408 11.2414 1.51781C11.6449 1.36861 11.9874 1.28779 12.4539 1.23184C12.602 1.21319 13.2962 1.21941 13.4739 1.23806Z" fill="#DCDFE5"/>
<path d="M12.9632 10.7583C14.8801 10.7583 16.4341 9.01869 16.4341 6.87283C16.4341 4.72697 14.8801 2.9874 12.9632 2.9874C11.0462 2.9874 9.49222 4.72697 9.49222 6.87283C9.49222 9.01869 11.0462 10.7583 12.9632 10.7583Z" fill="#DCDFE5"/>
</g>
<defs>
<clipPath id="clip0_7_19">
<rect width="23.695" height="13.7181" fill="white" transform="translate(0.976837 0.0154419)"/>
</clipPath>
</defs>
</svg>
