<svg width="197" height="197" viewBox="0 0 197 197" fill="none" xmlns="http://www.w3.org/2000/svg">
<path d="M115.409 87.7471L98.5002 80.0312L115.409 72.3154L123.125 55.4062L130.841 72.3154L147.75 80.0312L130.841 87.7471L123.125 104.656L115.409 87.7471ZM32.8335 121.073L40.5493 104.164L57.4585 96.4479L40.5493 88.7321L32.8335 71.8229L25.1177 88.7321L8.2085 96.4479L25.1177 104.164L32.8335 121.073ZM69.771 80.0312L78.7181 60.2492L98.5002 51.3021L78.7181 42.355L69.771 22.5729L60.8239 42.355L41.0418 51.3021L60.8239 60.2492L69.771 80.0312ZM36.9377 174.427L86.1877 125.095L119.021 157.928L188.792 79.4567L177.218 67.8829L119.021 133.303L86.1877 100.47L24.6252 162.115L36.9377 174.427Z" fill="url(#paint0_linear_106_229)"/>
<defs>
<linearGradient id="paint0_linear_106_229" x1="98.5002" y1="22.5729" x2="98.5002" y2="174.427" gradientUnits="userSpaceOnUse">
<stop offset="0.25" stop-color="#EFC75E"/>
<stop offset="1" stop-color="#5EB2EF"/>
</linearGradient>
</defs>
</svg>
